<?xml version="1.0" encoding="UTF-8" standalone="no"?>
<!DOCTYPE svg PUBLIC "-//W3C//DTD SVG 1.1//EN" "http://www.w3.org/Graphics/SVG/1.1/DTD/svg11.dtd">
<svg width="100%" height="100%" viewBox="0 0 859 859" version="1.1" xmlns="http://www.w3.org/2000/svg" xmlns:xlink="http://www.w3.org/1999/xlink" xml:space="preserve" xmlns:serif="http://www.serif.com/" style="fill-rule:evenodd;clip-rule:evenodd;stroke-linejoin:round;stroke-miterlimit:2;">
    <g id="tm" transform="matrix(1,0,0,1,-82.746,-82.672)">
        <g id="bg" transform="matrix(2.09095,0,0,2.09095,-293.623,-234.663)">
            <circle cx="385.293" cy="357.293" r="205.293" style="fill:white;"/>
        </g>
        <g transform="matrix(2.06666,0,0,2.06666,-517.706,-514.703)">
            <g id="tm1" serif:id="tm">
                <g>
                    <path d="M499.858,591.74C407.685,592.053 358.396,539.63 318.708,506.651C316.442,504.768 314.762,502.283 314.623,499.34C314.484,496.396 315.803,493.637 318.003,491.677C369.758,445.572 423.917,403.17 499.858,402.26C564.78,401.482 629.942,447.937 680.312,495.518C681.518,496.656 682.175,498.258 682.117,499.915C682.058,501.572 681.288,503.124 680.005,504.173C638.984,538.019 579.249,591.47 499.858,591.74ZM430.545,440.92C383.716,459.754 362.263,491.347 353.779,502.678C370.823,513.01 392.767,542.568 433.484,556.408C418.999,540.819 410.136,519.937 410.136,497C410.136,475.658 417.809,456.095 430.545,440.92ZM561.317,556.522C598.866,542.362 620.677,514.067 636.812,503.233C632.225,496.342 610.072,463.843 566.554,443.64C577.973,458.4 584.771,476.912 584.771,497C584.771,519.993 575.865,540.921 561.317,556.522ZM500.192,564.176C536.03,562.737 564.684,533.188 564.684,497C564.684,459.895 534.559,429.77 497.454,429.77C460.348,429.77 430.223,459.895 430.223,497C430.223,530.773 455.181,558.764 487.643,563.518C490.146,563.396 492.695,563.218 495.293,562.981L495.293,563.652C496.944,563.853 498.577,564.027 500.192,564.176ZM498.536,474.69C496.799,466.217 489.72,459.682 480.978,458.763C486.278,456.347 492.166,455 498.367,455C521.547,455 540.367,473.82 540.367,497C540.367,520.18 521.547,539 498.367,539C475.186,539 456.367,520.18 456.367,497C456.367,491.781 457.321,486.783 459.064,482.171C460.694,491.625 468.942,498.826 478.858,498.826C480.87,498.826 482.813,498.53 484.646,497.978L496.151,518.141C496.736,518.921 497.515,519.31 498.295,519.31C499.269,519.31 500.048,518.921 500.438,518.141L519.728,485.017C520.508,483.848 520.702,482.678 520.702,481.509C520.702,480.145 520.313,478.976 519.728,478.002C519.533,478.002 519.533,477.807 519.533,477.807C519.144,477.028 518.364,476.054 517,475.469C515.831,474.884 514.857,474.69 513.688,474.69L498.536,474.69ZM484.646,497.978L477.251,485.017C476.861,484.237 476.082,483.263 476.082,481.704C475.887,480.34 476.276,479.171 476.861,478.002C477.446,476.833 478.42,475.859 479.784,475.469C480.953,474.69 482.317,474.69 483.096,474.69L498.536,474.69C498.804,475.998 498.945,477.352 498.945,478.739C498.945,482.604 497.851,486.215 495.956,489.28L495.956,479.366L483.096,479.366C482.317,479.366 481.927,479.366 481.732,479.561C481.343,479.756 481.148,479.951 480.953,480.34C480.758,480.535 480.758,480.925 480.758,481.314C480.758,481.509 480.953,481.704 481.343,482.484L489.138,495.996C487.742,496.83 486.235,497.5 484.646,497.978ZM495.956,489.28L495.956,507.814L489.138,495.996C491.914,494.338 494.257,492.029 495.956,489.28ZM500.633,479.561L513.493,479.561C514.078,479.561 514.467,479.561 514.857,479.756L515.052,479.951C515.247,479.951 515.247,480.145 515.441,480.34C515.636,480.535 515.636,480.925 515.636,481.314C515.636,481.704 515.636,482.094 515.441,482.484L500.633,508.009L500.633,479.561Z"/>
                </g>
            </g>
        </g>
    </g>
</svg>
