<?xml version="1.0" encoding="UTF-8" standalone="no"?><!DOCTYPE svg PUBLIC "-//W3C//DTD SVG 1.1//EN" "http://www.w3.org/Graphics/SVG/1.1/DTD/svg11.dtd"><svg width="100%" height="100%" viewBox="0 0 800 800" version="1.1" xmlns="http://www.w3.org/2000/svg" xmlns:xlink="http://www.w3.org/1999/xlink" xml:space="preserve" xmlns:serif="http://www.serif.com/" style="fill-rule:evenodd;clip-rule:evenodd;stroke-linejoin:round;stroke-miterlimit:2;"><path id="vector--Stroke-" serif:id="vector (Stroke)" d="M312.268,32.957c50.234,-43.943 125.23,-43.943 175.463,0l236.594,206.963c36.638,32.05 57.656,78.359 57.656,127.036l0,299.794c0,73.593 -59.657,133.249 -133.249,133.249l-497.465,0c-73.592,0 -133.249,-59.657 -133.249,-133.249l0,-299.794c0,-48.677 21.017,-94.986 57.656,-127.036l236.594,-206.964Zm140.371,40.117c-30.139,-26.366 -75.138,-26.366 -105.278,0l-236.595,206.964c-25.069,21.929 -39.449,53.614 -39.449,86.919l0,299.794c0,44.154 35.795,79.95 79.95,79.95l497.465,0c44.154,0 79.95,-35.796 79.95,-79.95l0,-299.794c0,-33.305 -14.38,-64.99 -39.449,-86.919l-236.594,-206.964Z"/><path d="M401.771,512.54c-109.486,0.372 -168.033,-61.898 -215.176,-101.071c-2.692,-2.237 -4.687,-5.188 -4.852,-8.684c-0.165,-3.497 1.402,-6.774 4.015,-9.102c61.476,-54.765 125.808,-105.131 216.013,-106.212c77.116,-0.924 154.518,54.257 214.349,110.775c1.433,1.352 2.213,3.255 2.144,5.223c-0.07,1.968 -0.985,3.812 -2.509,5.058c-48.726,40.203 -119.681,103.694 -213.984,104.015Zm-82.332,-179.149c-55.625,22.372 -81.108,59.899 -91.185,73.358c20.245,12.273 46.311,47.383 94.676,63.822c-17.206,-18.517 -27.734,-43.321 -27.734,-70.567c0,-25.351 9.114,-48.588 24.242,-66.614Zm155.335,137.316c44.602,-16.82 70.51,-50.429 89.675,-63.298c-5.449,-8.185 -31.763,-46.789 -83.455,-70.786c13.564,17.532 21.639,39.522 21.639,63.383c0,27.312 -10.579,52.171 -27.859,70.702Zm-72.606,9.092c42.57,-1.709 76.606,-36.809 76.606,-79.794c0,-44.075 -35.783,-79.858 -79.858,-79.858c-44.076,0 -79.859,35.783 -79.859,79.858c0,40.117 29.646,73.365 68.205,79.012c2.973,-0.145 6.001,-0.356 9.087,-0.638l0,0.797c1.961,0.239 3.901,0.445 5.819,0.622Zm-1.967,-106.294c-2.063,-10.065 -10.472,-17.827 -20.856,-18.919c6.296,-2.87 13.289,-4.47 20.655,-4.47c27.534,0 49.889,22.355 49.889,49.889c0,27.534 -22.355,49.889 -49.889,49.889c-27.535,0 -49.889,-22.355 -49.889,-49.889c0,-6.199 1.133,-12.136 3.204,-17.614c1.936,11.23 11.733,19.783 23.512,19.783c2.39,0 4.698,-0.352 6.875,-1.007l13.666,23.95c0.695,0.927 1.62,1.389 2.547,1.389c1.157,0 2.082,-0.462 2.546,-1.389l22.913,-39.346c0.927,-1.389 1.157,-2.778 1.157,-4.167c0,-1.62 -0.462,-3.009 -1.157,-4.166c-0.232,0 -0.232,-0.232 -0.232,-0.232c-0.462,-0.925 -1.389,-2.082 -3.009,-2.777c-1.389,-0.695 -2.546,-0.925 -3.934,-0.925l-17.998,0Zm-16.499,27.662l-8.784,-15.395c-0.463,-0.927 -1.389,-2.083 -1.389,-3.935c-0.232,-1.62 0.23,-3.009 0.925,-4.397c0.695,-1.389 1.852,-2.546 3.472,-3.009c1.389,-0.925 3.009,-0.925 3.934,-0.925l18.34,0c0.318,1.554 0.486,3.162 0.486,4.81c0,4.591 -1.299,8.88 -3.55,12.521l0,-11.776l-15.276,0c-0.925,0 -1.389,0 -1.62,0.232c-0.462,0.232 -0.694,0.463 -0.925,0.925c-0.232,0.232 -0.232,0.695 -0.232,1.157c0,0.232 0.232,0.463 0.695,1.39l9.259,16.05c-1.658,0.991 -3.448,1.787 -5.336,2.354Zm13.434,-10.332l0,22.015l-8.099,-14.038c3.297,-1.969 6.081,-4.712 8.099,-7.977Zm5.555,-11.545l15.276,0c0.695,0 1.157,0 1.62,0.232l0.232,0.232c0.232,0 0.232,0.23 0.462,0.462c0.232,0.232 0.232,0.695 0.232,1.157c0,0.463 0,0.927 -0.232,1.39l-17.589,30.319l0,-33.791Z"/></svg>