<?xml version="1.0" encoding="UTF-8" standalone="no"?><!DOCTYPE svg PUBLIC "-//W3C//DTD SVG 1.1//EN" "http://www.w3.org/Graphics/SVG/1.1/DTD/svg11.dtd"><svg width="100%" height="100%" viewBox="0 0 797 797" version="1.1" xmlns="http://www.w3.org/2000/svg" xmlns:xlink="http://www.w3.org/1999/xlink" xml:space="preserve" xmlns:serif="http://www.serif.com/" style="fill-rule:evenodd;clip-rule:evenodd;stroke-linejoin:round;stroke-miterlimit:2;"><path d="M398.108,0c219.722,0 398.108,178.386 398.108,398.108c0,219.722 -178.386,398.108 -398.108,398.108c-219.722,0 -398.108,-178.386 -398.108,-398.108c0,-219.722 178.386,-398.108 398.108,-398.108Zm0,55.55c-189.063,0 -342.558,153.495 -342.558,342.558c0,189.063 153.495,342.558 342.558,342.558c189.063,0 342.558,-153.495 342.558,-342.558c0,-189.063 -153.495,-342.558 -342.558,-342.558Zm27.775,527.725c0,15.329 -12.446,27.775 -27.775,27.775c-15.329,0 -27.775,-12.446 -27.775,-27.775l0,-222.2c0,-15.329 12.446,-27.775 27.775,-27.775c15.329,0 27.775,12.446 27.775,27.775l0,222.2Zm-27.775,-296.267c-20.439,0 -37.033,-16.594 -37.033,-37.033c0,-20.439 16.594,-37.033 37.033,-37.033c20.439,0 37.033,16.594 37.033,37.033c0,20.439 -16.594,37.033 -37.033,37.033Z"/></svg>