<?xml version="1.0" encoding="UTF-8" standalone="no"?>
<!DOCTYPE svg PUBLIC "-//W3C//DTD SVG 1.1//EN" "http://www.w3.org/Graphics/SVG/1.1/DTD/svg11.dtd">
<svg width="100%" height="100%" viewBox="0 0 1903 145" version="1.1" xmlns="http://www.w3.org/2000/svg" xmlns:xlink="http://www.w3.org/1999/xlink" xml:space="preserve" xmlns:serif="http://www.serif.com/" style="fill-rule:evenodd;clip-rule:evenodd;stroke-linejoin:round;stroke-miterlimit:2;">
    <g transform="matrix(1,0,0,1,-797.536,-548.044)">
        <g id="TM" transform="matrix(1.0696,0,0,0.492401,45.7872,434.657)">
            <path d="M744.662,519.38L744.662,288.801L702.832,288.801L702.832,235.059L816.856,235.059L816.856,288.801L775.026,288.801L775.026,519.38L744.662,519.38Z" style="fill-rule:nonzero;"/>
            <path d="M894.738,524.165C884.434,524.165 874.906,520.51 866.154,513.199C857.402,505.888 849.816,495.612 843.397,482.371C836.978,469.13 831.987,453.582 828.422,435.728C824.858,417.873 823.076,398.345 823.076,377.144C823.076,355.942 824.858,336.451 828.422,318.671C831.987,300.89 836.983,285.356 843.41,272.069C849.838,258.781 857.414,248.494 866.138,241.206C874.862,233.918 884.375,230.274 894.677,230.274C905.021,230.274 914.534,233.903 923.215,241.161C931.897,248.42 939.443,258.666 945.855,271.9C952.267,285.135 957.256,300.671 960.82,318.509C964.384,336.346 966.167,355.9 966.167,377.169C966.167,398.438 964.384,418.02 960.82,435.915C957.256,453.81 952.267,469.363 945.855,482.574C939.443,495.785 931.897,506.02 923.215,513.278C914.534,520.536 905.042,524.165 894.738,524.165ZM894.674,468.399C900.519,468.399 905.917,466.191 910.867,461.774C915.817,457.356 920.137,451.092 923.828,442.982C927.518,434.871 930.392,425.247 932.452,414.108C934.512,402.97 935.542,390.649 935.542,377.144C935.542,363.643 934.516,351.355 932.465,340.28C930.414,329.206 927.542,319.609 923.848,311.49C920.154,303.37 915.831,297.099 910.879,292.676C905.927,288.252 900.527,286.04 894.68,286.04C888.834,286.04 883.425,288.254 878.453,292.682C873.48,297.11 869.14,303.388 865.434,311.518C861.727,319.648 858.845,329.256 856.787,340.344C854.729,351.431 853.7,363.695 853.7,377.137C853.7,390.583 854.728,402.874 856.783,414.01C858.838,425.146 861.715,434.798 865.415,442.966C869.115,451.134 873.455,457.415 878.435,461.808C883.416,466.202 888.829,468.399 894.674,468.399Z" style="fill-rule:nonzero;"/>
            <path d="M989.019,519.38L989.019,235.059L1014.01,235.059L1091.29,439.948L1079.2,439.948L1079.2,235.059L1109.12,235.059L1109.12,519.38L1084.13,519.38L1006.85,314.491L1018.94,314.491L1018.94,519.38L989.019,519.38Z" style="fill-rule:nonzero;"/>
            <path d="M1193.08,519.38L1193.08,235.059L1218.07,235.059L1273.81,435.874L1260.61,435.874L1315.3,235.059L1340.3,235.059L1340.56,519.38L1312.2,519.38L1311.94,329.894L1317.29,329.894L1273.48,489.133L1259.9,489.133L1215.16,329.894L1221.44,329.894L1221.44,519.38L1193.08,519.38Z" style="fill-rule:nonzero;"/>
            <path d="M1435.07,524.165C1424.77,524.165 1415.24,520.51 1406.49,513.199C1397.74,505.888 1390.15,495.612 1383.73,482.371C1377.31,469.13 1372.32,453.582 1368.76,435.728C1365.19,417.873 1363.41,398.345 1363.41,377.144C1363.41,355.942 1365.19,336.451 1368.76,318.671C1372.32,300.89 1377.32,285.356 1383.75,272.069C1390.17,258.781 1397.75,248.494 1406.47,241.206C1415.2,233.918 1424.71,230.274 1435.01,230.274C1445.36,230.274 1454.87,233.903 1463.55,241.161C1472.23,248.42 1479.78,258.666 1486.19,271.9C1492.6,285.135 1497.59,300.671 1501.15,318.509C1504.72,336.346 1506.5,355.9 1506.5,377.169C1506.5,398.438 1504.72,418.02 1501.15,435.915C1497.59,453.81 1492.6,469.363 1486.19,482.574C1479.78,495.785 1472.23,506.02 1463.55,513.278C1454.87,520.536 1445.38,524.165 1435.07,524.165ZM1435.01,468.399C1440.85,468.399 1446.25,466.191 1451.2,461.774C1456.15,457.356 1460.47,451.092 1464.16,442.982C1467.85,434.871 1470.73,425.247 1472.79,414.108C1474.85,402.97 1475.88,390.649 1475.88,377.144C1475.88,363.643 1474.85,351.355 1472.8,340.28C1470.75,329.206 1467.88,319.609 1464.18,311.49C1460.49,303.37 1456.17,297.099 1451.21,292.676C1446.26,288.252 1440.86,286.04 1435.01,286.04C1429.17,286.04 1423.76,288.254 1418.79,292.682C1413.82,297.11 1409.48,303.388 1405.77,311.518C1402.06,319.648 1399.18,329.256 1397.12,340.344C1395.06,351.431 1394.04,363.695 1394.04,377.137C1394.04,390.583 1395.06,402.874 1397.12,414.01C1399.17,425.146 1402.05,434.798 1405.75,442.966C1409.45,451.134 1413.79,457.415 1418.77,461.808C1423.75,466.202 1429.16,468.399 1435.01,468.399Z" style="fill-rule:nonzero;"/>
            <path d="M1529.35,519.38L1529.35,235.059L1554.35,235.059L1631.63,439.948L1619.54,439.948L1619.54,235.059L1649.46,235.059L1649.46,519.38L1624.47,519.38L1547.18,314.491L1559.27,314.491L1559.27,519.38L1529.35,519.38Z" style="fill-rule:nonzero;"/>
            <rect x="1680.48" y="235.059" width="30.362" height="284.321" style="fill-rule:nonzero;"/>
            <path d="M1768.93,519.38L1768.93,288.801L1727.1,288.801L1727.1,235.059L1841.12,235.059L1841.12,288.801L1799.29,288.801L1799.29,519.38L1768.93,519.38Z" style="fill-rule:nonzero;"/>
            <path d="M1919.01,524.165C1908.7,524.165 1899.17,520.51 1890.42,513.199C1881.67,505.888 1874.08,495.612 1867.66,482.371C1861.25,469.13 1856.26,453.582 1852.69,435.728C1849.13,417.873 1847.34,398.345 1847.34,377.144C1847.34,355.942 1849.13,336.451 1852.69,318.671C1856.26,300.89 1861.25,285.356 1867.68,272.069C1874.11,258.781 1881.68,248.494 1890.41,241.206C1899.13,233.918 1908.64,230.274 1918.94,230.274C1929.29,230.274 1938.8,233.903 1947.48,241.161C1956.16,248.42 1963.71,258.666 1970.12,271.9C1976.54,285.135 1981.52,300.671 1985.09,318.509C1988.65,336.346 1990.43,355.9 1990.43,377.169C1990.43,398.438 1988.65,418.02 1985.09,435.915C1981.52,453.81 1976.54,469.363 1970.12,482.574C1963.71,495.785 1956.16,506.02 1947.48,513.278C1938.8,520.536 1929.31,524.165 1919.01,524.165ZM1918.94,468.399C1924.79,468.399 1930.18,466.191 1935.13,461.774C1940.09,457.356 1944.41,451.092 1948.1,442.982C1951.79,434.871 1954.66,425.247 1956.72,414.108C1958.78,402.97 1959.81,390.649 1959.81,377.144C1959.81,363.643 1958.79,351.355 1956.73,340.28C1954.68,329.206 1951.81,319.609 1948.12,311.49C1944.42,303.37 1940.1,297.099 1935.15,292.676C1930.19,288.252 1924.8,286.04 1918.95,286.04C1913.1,286.04 1907.69,288.254 1902.72,292.682C1897.75,297.11 1893.41,303.388 1889.7,311.518C1886,319.648 1883.11,329.256 1881.06,340.344C1879,351.431 1877.97,363.695 1877.97,377.137C1877.97,390.583 1879,402.874 1881.05,414.01C1883.11,425.146 1885.98,434.798 1889.68,442.966C1893.38,451.134 1897.72,457.415 1902.7,461.808C1907.68,466.202 1913.1,468.399 1918.94,468.399Z" style="fill-rule:nonzero;"/>
            <path d="M2013.29,519.38L2013.29,235.059L2069.87,235.059C2081.63,235.059 2091.77,239.188 2100.27,247.444C2108.76,255.701 2115.31,267.558 2119.91,283.016C2124.51,298.474 2126.81,316.842 2126.81,338.119C2126.81,359.236 2124.51,377.429 2119.91,392.699C2115.31,407.968 2108.76,419.678 2100.27,427.826C2091.77,435.975 2081.63,440.05 2069.87,440.05L2030.11,440.05L2043.65,411.433L2043.65,519.38L2013.29,519.38ZM2096.6,519.38L2063.76,416.054L2096.18,416.054L2129.28,519.38L2096.6,519.38ZM2043.65,418.567L2030.11,387.603L2068.3,387.603C2077.57,387.603 2084.54,383.235 2089.2,374.5C2093.86,365.765 2096.19,353.638 2096.19,338.119C2096.19,322.439 2093.86,310.273 2089.2,301.621C2084.54,292.969 2077.57,288.642 2068.3,288.642L2030.11,288.642L2043.65,257.437L2043.65,418.567Z" style="fill-rule:nonzero;"/>
            <rect x="2150.79" y="235.059" width="30.362" height="284.321" style="fill-rule:nonzero;"/>
            <path d="M2212.17,519.38L2212.17,235.059L2237.16,235.059L2314.45,439.948L2302.36,439.948L2302.36,235.059L2332.28,235.059L2332.28,519.38L2307.28,519.38L2230,314.491L2242.09,314.491L2242.09,519.38L2212.17,519.38Z" style="fill-rule:nonzero;"/>
            <path d="M2426.43,524.165C2416.14,524.165 2406.65,520.578 2397.96,513.402C2389.27,506.226 2381.73,496.044 2375.34,482.856C2368.94,469.668 2363.97,454.126 2360.44,436.229C2356.9,418.332 2355.13,398.662 2355.13,377.22C2355.13,355.777 2356.9,336.107 2360.44,318.21C2363.97,300.313 2368.97,284.771 2375.43,271.583C2381.89,258.395 2389.48,248.213 2398.22,241.038C2406.96,233.862 2416.56,230.274 2427.03,230.274C2438.64,230.274 2449.09,234.442 2458.39,242.777C2467.68,251.112 2475.48,263.261 2481.79,279.224L2462.47,318.299C2457.67,307.354 2452.48,299.241 2446.89,293.961C2441.31,288.68 2435.17,286.04 2428.48,286.04C2422.19,286.04 2416.43,288.237 2411.18,292.631C2405.94,297.025 2401.42,303.275 2397.62,311.382C2393.83,319.488 2390.9,329.1 2388.84,340.217C2386.78,351.334 2385.75,363.668 2385.75,377.22C2385.75,390.395 2386.78,402.567 2388.84,413.737C2390.9,424.907 2393.83,434.586 2397.62,442.775C2401.42,450.964 2405.89,457.282 2411.05,461.729C2416.21,466.176 2421.91,468.399 2428.15,468.399C2434.19,468.399 2440.03,466.285 2445.66,462.056C2451.3,457.827 2456.84,450.674 2462.28,440.595L2479.4,488.016C2472.25,499.82 2463.98,508.796 2454.58,514.944C2445.19,521.092 2435.81,524.165 2426.43,524.165ZM2451.79,479.505L2451.79,372.688L2479.4,372.688L2479.4,488.016L2451.79,479.505Z" style="fill-rule:nonzero;"/>
        </g>
    </g>
</svg>
